<svg width="40" height="40" viewBox="0 0 40 40" fill="none" xmlns="http://www.w3.org/2000/svg">
<path d="M40 20C40 8.95431 31.0457 0 20 0C8.95431 0 0 8.95431 0 20C0 31.0457 8.95431 40 20 40C31.0457 40 40 31.0457 40 20Z" fill="white"/>
<path d="M39.5 20C39.5 9.23045 30.7696 0.5 20 0.5C9.23045 0.5 0.5 9.23045 0.5 20C0.5 30.7696 9.23045 39.5 20 39.5C30.7696 39.5 39.5 30.7696 39.5 20Z" stroke="#101010" stroke-opacity="0.5"/>
<path d="M13.6763 20.8839C13.1882 20.3957 13.1882 19.6043 13.6763 19.1161L21.6313 11.1612C22.1194 10.673 22.9109 10.673 23.3991 11.1612C23.8872 11.6493 23.8872 12.4408 23.3991 12.9289L16.328 20L23.3991 27.0711C23.8872 27.5592 23.8872 28.3507 23.3991 28.8388C22.9109 29.327 22.1194 29.327 21.6313 28.8388L13.6763 20.8839ZM15.0693 21.25H14.5602V18.75H15.0693V21.25Z" fill="#101010"/>
</svg>
