<svg width="40" height="40" viewBox="0 0 40 40" fill="none" xmlns="http://www.w3.org/2000/svg">
<path d="M0 20C0 31.0457 8.95431 40 20 40C31.0457 40 40 31.0457 40 20C40 8.95431 31.0457 0 20 0C8.95431 0 0 8.95431 0 20Z" fill="white"/>
<path d="M0.5 20C0.5 30.7696 9.23045 39.5 20 39.5C30.7696 39.5 39.5 30.7696 39.5 20C39.5 9.23045 30.7696 0.5 20 0.5C9.23045 0.5 0.5 9.23045 0.5 20Z" stroke="#101010" stroke-opacity="0.5"/>
<path d="M26.3237 19.1161C26.8118 19.6043 26.8118 20.3957 26.3237 20.8839L18.3687 28.8388C17.8806 29.327 17.0891 29.327 16.6009 28.8388C16.1128 28.3507 16.1128 27.5592 16.6009 27.0711L23.672 20L16.6009 12.9289C16.1128 12.4408 16.1128 11.6493 16.6009 11.1612C17.0891 10.673 17.8806 10.673 18.3687 11.1612L26.3237 19.1161ZM24.9307 18.75H25.4398V21.25H24.9307V18.75Z" fill="#101010"/>
</svg>
