<svg width="149" height="39" viewBox="0 0 149 39" fill="none" xmlns="http://www.w3.org/2000/svg">
<path d="M0.777866 8.18488C-0.046141 7.3288 -0.0201408 5.96682 0.835941 5.14281C1.69202 4.3188 3.054 4.3448 3.87801 5.20089L8.09216 9.57907C8.91617 10.4352 8.89017 11.7971 8.03409 12.6211C7.17801 13.4451 5.81602 13.4191 4.99202 12.5631L0.777866 8.18488Z" fill="white"/>
<path d="M19.9019 28.9823C19.0779 28.1263 19.1039 26.7643 19.9599 25.9403C20.816 25.1163 22.178 25.1423 23.002 25.9983L27.2162 30.3765C28.0402 31.2326 28.0142 32.5946 27.1581 33.4186C26.302 34.2426 24.94 34.2166 24.116 33.3605L19.9019 28.9823Z" fill="white"/>
<path d="M0.00287135 6.75847C0.00287135 5.57025 0.966114 4.60701 2.15433 4.60701C3.34255 4.60701 4.30579 5.57025 4.30579 6.75847V36.1618C4.30579 37.35 3.34255 38.3132 2.15433 38.3132C0.966114 38.3132 0.00287135 37.35 0.00287135 36.1618V6.75847Z" fill="white"/>
<path d="M23.6688 2.45555C23.6688 1.26733 24.6321 0.304093 25.8203 0.304093C27.0085 0.304093 27.9718 1.26733 27.9718 2.45555V31.8589C27.9718 33.0471 27.0085 34.0103 25.8203 34.0103C24.6321 34.0103 23.6688 33.0471 23.6688 31.8589V2.45555Z" fill="white"/>
<path d="M16.9786 18.3978C17.8188 17.5576 19.1811 17.5576 20.0213 18.3978C20.8615 19.238 20.8615 20.6003 20.0213 21.4405L3.67277 37.789C2.83257 38.6292 1.47035 38.6292 0.630148 37.789C-0.210049 36.9488 -0.21005 35.5865 0.630148 34.7463L16.9786 18.3978Z" fill="white"/>
<path d="M24.3272 0.630147C25.1674 -0.21005 26.5297 -0.210049 27.3699 0.630149C28.2101 1.47035 28.2101 2.83258 27.3699 3.67277L11.0214 20.0213C10.1812 20.8615 8.81893 20.8615 7.97873 20.0213C7.13853 19.1811 7.13853 17.8188 7.97873 16.9786L24.3272 0.630147Z" fill="white"/>
<path d="M41.6641 6.77848V9.1691H36.5625V18.4191H33.75V6.77848H41.6641Z" fill="white"/>
<path d="M39.9966 18.4191L43.9966 6.77848H47.6997L51.7231 18.4191H48.5825L47.895 16.1769H43.7622L43.0513 18.4191H39.9966ZM44.4653 13.9816H47.2153L47.0044 13.3019C46.8117 12.6509 46.619 11.9998 46.4263 11.3488C46.2388 10.6977 46.0486 10.0155 45.8559 9.30191C45.658 10.0155 45.4627 10.6977 45.27 11.3488C45.0773 11.9998 44.8794 12.6509 44.6763 13.3019L44.4653 13.9816Z" fill="white"/>
<path d="M52.04 18.4191V6.77848H56.8056C57.7015 6.77848 58.4775 6.93994 59.1338 7.26285C59.79 7.58056 60.2952 8.03368 60.6494 8.62223C61.0088 9.21077 61.1884 9.90868 61.1884 10.716C61.1884 11.5181 61.0088 12.2134 60.6494 12.8019C60.29 13.3905 59.7796 13.8462 59.1181 14.1691C58.4619 14.492 57.6858 14.6535 56.79 14.6535H54.8525V18.4191H52.04ZM54.8525 12.3175H56.6103C57.1728 12.3175 57.6181 12.1743 57.9463 11.8879C58.2796 11.5962 58.4463 11.2056 58.4463 10.716C58.4463 10.2212 58.2796 9.83056 57.9463 9.5441C57.6181 9.25243 57.1728 9.1066 56.6103 9.1066H54.8525V12.3175Z" fill="white"/>
<path d="M61.3725 20.9191V16.0285H62.2319C62.4975 15.8462 62.7397 15.6092 62.9584 15.3175C63.1824 15.0207 63.3725 14.591 63.5288 14.0285C63.685 13.466 63.8022 12.6925 63.8803 11.7082L64.2787 6.77848H72.7084V16.0285H73.9584V20.9191H71.2553V18.4191H64.0756V20.9191H61.3725ZM65.3647 16.0285H69.9037V9.1691H66.8491L66.6303 11.7082C66.5366 12.8227 66.3725 13.7134 66.1381 14.38C65.9037 15.0467 65.6459 15.5962 65.3647 16.0285Z" fill="white"/>
<path d="M74.5644 18.4191V6.77848H83.2363V9.1691H77.3769V11.4113H82.7909V13.7316H77.3769V16.0285H83.2363V18.4191H74.5644Z" fill="white"/>
<path d="M83.9906 18.4191V6.77848H88.7562C89.6521 6.77848 90.4281 6.93994 91.0844 7.26285C91.7406 7.58056 92.2458 8.03368 92.6 8.62223C92.9594 9.21077 93.1391 9.90868 93.1391 10.716C93.1391 11.5181 92.9594 12.2134 92.6 12.8019C92.2406 13.3905 91.7302 13.8462 91.0687 14.1691C90.4125 14.492 89.6365 14.6535 88.7406 14.6535H86.8031V18.4191H83.9906ZM86.8031 12.3175H88.5609C89.1234 12.3175 89.5687 12.1743 89.8969 11.8879C90.2302 11.5962 90.3969 11.2056 90.3969 10.716C90.3969 10.2212 90.2302 9.83056 89.8969 9.5441C89.5687 9.25243 89.1234 9.1066 88.5609 9.1066H86.8031V12.3175Z" fill="white"/>
<path d="M98.9716 18.6066C97.9195 18.6066 96.9716 18.3696 96.1278 17.8957C95.2893 17.4165 94.6252 16.729 94.1356 15.8332C93.646 14.9373 93.4013 13.8618 93.4013 12.6066C93.4013 11.341 93.646 10.2602 94.1356 9.36441C94.6252 8.46337 95.2893 7.77587 96.1278 7.30191C96.9716 6.82796 97.9195 6.59098 98.9716 6.59098C100.018 6.59098 100.961 6.82796 101.8 7.30191C102.643 7.77587 103.31 8.46337 103.8 9.36441C104.289 10.2602 104.534 11.341 104.534 12.6066C104.534 13.867 104.289 14.9451 103.8 15.841C103.31 16.7368 102.643 17.4217 101.8 17.8957C100.961 18.3696 100.018 18.6066 98.9716 18.6066ZM98.9716 16.1535C99.8049 16.1535 100.469 15.8436 100.964 15.2238C101.459 14.604 101.706 13.7316 101.706 12.6066C101.706 11.4764 101.459 10.6014 100.964 9.9816C100.469 9.3566 99.8049 9.0441 98.9716 9.0441C98.1382 9.0441 97.4716 9.3566 96.9716 9.9816C96.4768 10.6014 96.2294 11.4764 96.2294 12.6066C96.2294 13.7316 96.4768 14.604 96.9716 15.2238C97.4716 15.8436 98.1382 16.1535 98.9716 16.1535Z" fill="white"/>
<path d="M105.218 18.4191V6.77848H113.148V9.05191H107.96V11.4425H110.374C111.536 11.4425 112.455 11.7342 113.132 12.3175C113.814 12.8957 114.156 13.7212 114.156 14.7941C114.156 15.9087 113.814 16.7915 113.132 17.4425C112.455 18.0936 111.536 18.4191 110.374 18.4191H105.218ZM107.96 16.2629H109.913C110.403 16.2629 110.788 16.1379 111.07 15.8879C111.351 15.6379 111.492 15.2967 111.492 14.8644C111.492 14.4425 111.351 14.1092 111.07 13.8644C110.788 13.6196 110.403 13.4972 109.913 13.4972H107.96V16.2629Z" fill="white"/>
<path d="M114.785 18.4191V6.77848H117.598V11.3019H122.027V6.77848H124.84V18.4191H122.027V13.6925H117.598V18.4191H114.785Z" fill="white"/>
<path d="M128.68 10.716H130.61C131.516 10.716 132.297 10.8722 132.953 11.1847C133.615 11.4972 134.123 11.9399 134.477 12.5129C134.836 13.0858 135.016 13.7629 135.016 14.5441C135.016 15.341 134.849 16.0285 134.516 16.6066C134.183 17.1847 133.706 17.6326 133.086 17.9504C132.472 18.2629 131.74 18.4191 130.891 18.4191H125.868V6.77848H128.68V10.716ZM128.68 12.966V16.1144H130.446C131.013 16.1144 131.464 15.9712 131.797 15.6847C132.131 15.3983 132.297 15.0102 132.297 14.5207C132.297 14.0415 132.131 13.6639 131.797 13.3879C131.464 13.1066 131.013 12.966 130.446 12.966H128.68ZM138.719 6.77848V18.4191H135.907V6.77848H138.719Z" fill="white"/>
<path d="M139.747 18.4191V6.77848H148.419V9.1691H142.559V11.4113H147.973V13.7316H142.559V16.0285H148.419V18.4191H139.747Z" fill="white"/>
<path d="M39 35.6066C37.9323 35.6066 36.9766 35.3696 36.1328 34.8957C35.2943 34.4165 34.6302 33.729 34.1406 32.8332C33.651 31.9373 33.4062 30.8618 33.4062 29.6066C33.4062 28.341 33.651 27.2602 34.1406 26.3644C34.6302 25.4634 35.2943 24.7759 36.1328 24.3019C36.9766 23.828 37.9323 23.591 39 23.591C39.9479 23.591 40.7969 23.7759 41.5469 24.1457C42.2969 24.5102 42.9062 25.0259 43.375 25.6925C43.849 26.354 44.1432 27.13 44.2578 28.0207H41.4219C41.3021 27.3957 41.0312 26.9113 40.6094 26.5675C40.1927 26.2186 39.6719 26.0441 39.0469 26.0441C38.151 26.0441 37.4583 26.3618 36.9688 26.9972C36.4792 27.6274 36.2344 28.4972 36.2344 29.6066C36.2344 30.7108 36.4766 31.578 36.9609 32.2082C37.4505 32.8384 38.1458 33.1535 39.0469 33.1535C39.6719 33.1535 40.1927 32.9816 40.6094 32.6379C41.0312 32.2941 41.3047 31.8123 41.4297 31.1925H44.2578C44.138 32.0832 43.8411 32.8592 43.3672 33.5207C42.8984 34.1821 42.2891 34.6951 41.5391 35.0597C40.7943 35.4243 39.9479 35.6066 39 35.6066Z" fill="white"/>
<path d="M55.1138 35.4191H52.3013V30.5675C52.3013 30.3227 52.3039 29.9738 52.3091 29.5207C52.3143 29.0675 52.3299 28.5571 52.3559 27.9894C52.0486 28.5363 51.7648 29.0363 51.5044 29.4894C51.244 29.9425 51.0278 30.3045 50.8559 30.5754L47.8247 35.4191H44.9106V23.7785H47.7231V28.8254C47.7231 29.0858 47.7179 29.4347 47.7075 29.8722C47.7023 30.3097 47.6945 30.7576 47.6841 31.216C47.908 30.7993 48.132 30.3931 48.3559 29.9972C48.5799 29.5962 48.7622 29.2863 48.9028 29.0675L52.2075 23.7785H55.1138V35.4191Z" fill="white"/>
<path d="M61.3838 35.6066C60.316 35.6066 59.3603 35.3696 58.5166 34.8957C57.678 34.4165 57.014 33.729 56.5244 32.8332C56.0348 31.9373 55.79 30.8618 55.79 29.6066C55.79 28.341 56.0348 27.2602 56.5244 26.3644C57.014 25.4634 57.678 24.7759 58.5166 24.3019C59.3603 23.828 60.316 23.591 61.3838 23.591C62.3317 23.591 63.1806 23.7759 63.9306 24.1457C64.6806 24.5102 65.29 25.0259 65.7588 25.6925C66.2327 26.354 66.527 27.13 66.6416 28.0207H63.8056C63.6858 27.3957 63.415 26.9113 62.9931 26.5675C62.5765 26.2186 62.0556 26.0441 61.4306 26.0441C60.5348 26.0441 59.8421 26.3618 59.3525 26.9972C58.8629 27.6274 58.6181 28.4972 58.6181 29.6066C58.6181 30.7108 58.8603 31.578 59.3447 32.2082C59.8343 32.8384 60.5296 33.1535 61.4306 33.1535C62.0556 33.1535 62.5765 32.9816 62.9931 32.6379C63.415 32.2941 63.6884 31.8123 63.8134 31.1925H66.6416C66.5218 32.0832 66.2249 32.8592 65.7509 33.5207C65.2822 34.1821 64.6728 34.6951 63.9228 35.0597C63.178 35.4243 62.3317 35.6066 61.3838 35.6066Z" fill="white"/>
<path d="M66.8725 26.1691V23.7785H76.5366V26.1691H73.1147V35.4191H70.3022V26.1691H66.8725Z" fill="white"/>
<path d="M77.1425 35.4191V23.7785H85.8144V26.1691H79.955V28.4113H85.3691V30.7316H79.955V33.0285H85.8144V35.4191H77.1425Z" fill="white"/>
<path d="M86.5687 35.4191V23.7785H90.725L92.225 28.3488C92.3396 28.7186 92.4776 29.1951 92.6391 29.7785C92.8005 30.3618 92.9542 30.9269 93.1 31.4738C93.2458 30.9269 93.3969 30.3618 93.5531 29.7785C93.7146 29.1951 93.85 28.7186 93.9594 28.3488L95.4437 23.7785H99.6078V35.4191H96.85V30.38C96.85 29.9842 96.8604 29.4504 96.8812 28.7785C96.9073 28.1014 96.9281 27.4165 96.9437 26.7238C96.751 27.4269 96.5609 28.1144 96.3734 28.7863C96.1859 29.4582 96.0297 29.9894 95.9047 30.38L94.2328 35.4191H91.9594L90.2562 30.38C90.1365 30.005 89.9854 29.4998 89.8031 28.8644C89.6208 28.2238 89.4333 27.5623 89.2406 26.88C89.2562 27.5467 89.2745 28.203 89.2953 28.8488C89.3161 29.4894 89.3266 29.9998 89.3266 30.38V35.4191H86.5687Z" fill="white"/>
<path d="M103.448 27.716H105.378C106.284 27.716 107.065 27.8722 107.722 28.1847C108.383 28.4972 108.891 28.9399 109.245 29.5129C109.604 30.0858 109.784 30.7629 109.784 31.5441C109.784 32.341 109.617 33.0285 109.284 33.6066C108.951 34.1847 108.474 34.6326 107.854 34.9504C107.24 35.2629 106.508 35.4191 105.659 35.4191H100.636V23.7785H103.448V27.716ZM103.448 29.966V33.1144H105.214C105.781 33.1144 106.232 32.9712 106.565 32.6847C106.899 32.3983 107.065 32.0102 107.065 31.5207C107.065 31.0415 106.899 30.6639 106.565 30.3879C106.232 30.1066 105.781 29.966 105.214 29.966H103.448ZM113.487 23.7785V35.4191H110.675V23.7785H113.487Z" fill="white"/>
</svg>
